# xmcd
#
# Track frame offsets:
# 150
# 26220
# 47630
# 68009
# 91146
# 115433
# 136843
# 157298
# 175455
#
# Disc length: 2623 seconds
#
#
# Revision: 0
# Processed by: cddbd v1.5.2PL0 Copyright (c) Steve Scherf et al.
# Submitted via: FreeRIP 2.945 
#
DISCID=7c0a3d09
DTITLE=Skyy - From The Left Side
DYEAR=1900
DGENRE=R&B
TTITLE0=Givin' It (To You)
TTITLE1=Love Attack
TTITLE2=Non-Stop
TTITLE3=Song Song
TTITLE4=Big Fun
TTITLE5=Love Illogical
TTITLE6=Tell Her You Care
TTITLE7=Jealousitis
TTITLE8=Rock It
EXTD=
EXTT0=
EXTT1=
EXTT2=
EXTT3=
EXTT4=
EXTT5=
EXTT6=
EXTT7=
EXTT8=
PLAYORDER=
